<?xml version="1.0" encoding="UTF-8" standalone="no"?>
<svg
   viewBox="-5 -32 500.00001 820.00001"
   version="1.1"
   xml:space="preserve"
   style="clip-rule:evenodd;fill-rule:evenodd;stroke-linecap:round"
   id="svg5"
   sodipodi:docname="marker-leaflet-proto2.svg"
   inkscape:export-filename="marker-blau10.png"
   inkscape:export-xdpi="9.6000004"
   inkscape:export-ydpi="9.6000004"
   inkscape:version="1.3.2 (091e20ef0f, 2023-11-25)"
   width="500"
   height="820"
   xmlns:inkscape="http://www.inkscape.org/namespaces/inkscape"
   xmlns:sodipodi="http://sodipodi.sourceforge.net/DTD/sodipodi-0.dtd"
   xmlns="http://www.w3.org/2000/svg"
   xmlns:svg="http://www.w3.org/2000/svg"><sodipodi:namedview
   id="namedview5"
   pagecolor="#505050"
   bordercolor="#eeeeee"
   borderopacity="1"
   inkscape:showpageshadow="0"
   inkscape:pageopacity="0"
   inkscape:pagecheckerboard="0"
   inkscape:deskcolor="#505050"
   showgrid="true"
   inkscape:zoom="1.5297652"
   inkscape:cx="353.64905"
   inkscape:cy="219.31471"
   inkscape:window-width="1920"
   inkscape:window-height="1129"
   inkscape:window-x="1920"
   inkscape:window-y="0"
   inkscape:window-maximized="1"
   inkscape:current-layer="svg5"
   showborder="true"><inkscape:grid
     id="grid5"
     units="px"
     originx="250"
     originy="820"
     spacingx="1"
     spacingy="1"
     empcolor="#0099e5"
     empopacity="0.30196078"
     color="#0099e5"
     opacity="0.14901961"
     empspacing="5"
     dotted="false"
     gridanglex="30"
     gridanglez="30"
     visible="true" /></sodipodi:namedview>
    <defs
   id="defs4"><linearGradient
   x1="0"
   y1="0"
   x2="1"
   y2="0"
   gradientUnits="userSpaceOnUse"
   gradientTransform="matrix(0,-372.32801,372.32801,0,210.5829,402.82467)"
   id="linearGradient9">
            <stop
   offset="0"
   stop-color="rgb(46,108,151)"
   id="stop8"
   style="stop-color:#ffffff;stop-opacity:0.40100306;" />
            <stop
   offset="1"
   stop-color="rgb(56,131,183)"
   id="stop9" />
        </linearGradient>
        <linearGradient
   x1="0"
   y1="0"
   x2="1"
   y2="0"
   gradientUnits="userSpaceOnUse"
   gradientTransform="matrix(0,-734.1035,734.1035,0,244.36897,741.35349)"
   id="map-marker-38-f">
            <stop
   offset="0"
   stop-color="rgb(18,111,198)"
   id="stop1" />
            <stop
   offset="1"
   stop-color="rgb(76,156,209)"
   id="stop2" />
        </linearGradient>
        <linearGradient
   x1="0"
   y1="0"
   x2="1"
   y2="0"
   gradientUnits="userSpaceOnUse"
   gradientTransform="matrix(0,-372.32801,372.32801,0,205.8132,379.578)"
   id="map-marker-38-s">
            <stop
   offset="0"
   stop-color="rgb(46,108,151)"
   id="stop3"
   style="stop-color:#2e6297;stop-opacity:1;" />
            <stop
   offset="1"
   stop-color="rgb(56,131,183)"
   id="stop4" />
        </linearGradient>
    
        
        
    </defs>
    <path
   fill="#ffffff"
   d="m 337.09434,243.05968 c 0,50.80842 -41.03757,91.84599 -91.84599,91.84599 -50.80842,0 -91.84599,-41.03757 -91.84599,-91.84599 0,-50.80842 41.03757,-91.84599 91.84599,-91.84599 50.80842,0 91.84599,41.03757 91.84599,91.84599 z"
   id="path4"
   style="clip-rule:evenodd;display:inline;fill-rule:evenodd;stroke-width:19.5417;stroke-linecap:round"
   inkscape:label="Kreis-gefuellt" /><path
   d="m 246.10818,10.74795 c -128.44759,0 -235.36023,111.21182 -235.36023,231.88181 0,54.28685 30.56322,123.26905 52.64534,170.91171 L 245.24835,762.79073 426.24358,413.54147 c 22.08212,-47.64266 53.50517,-113.16598 53.50517,-170.91171 0,-120.66999 -105.19297,-231.88181 -233.64057,-231.88181 z m 0,139.82086 c 50.49576,0.33221 91.43562,41.46749 91.43562,92.04141 0,50.57392 -40.93986,91.12295 -91.43562,91.43562 -50.49575,-0.33221 -91.43561,-40.84216 -91.43561,-91.43562 0,-50.57392 40.93986,-91.7092 91.43561,-92.04141 z"
   stroke-width="21.4959px"
   fill="url(#map-marker-38-f)"
   stroke="url(#map-marker-38-s)"
   id="path5"
   style="display:inline;fill:url(#map-marker-38-f);stroke:url(#map-marker-38-s)"
   inkscape:export-filename="marker-blau4.png"
   inkscape:export-xdpi="10.01"
   inkscape:export-ydpi="10.01"
   inkscape:label="Marker" />
<g
   id="g9"
   transform="translate(-4.7697004,-23.24667)"><path
     style="clip-rule:evenodd;display:inline;mix-blend-mode:soft-light;fill:none;fill-rule:evenodd;stroke:#ffffff;stroke-width:20;stroke-linecap:round;stroke-dasharray:none;stroke-opacity:0.404258"
     d="m 250.78838,51.974034 c -118.06387,0 -216.333569,103.390146 -216.333569,215.573276 0,50.46877 28.092467,114.59941 48.389453,158.89127 l 167.153746,324.6862 166.3635,-324.6862 c 20.29691,-44.29186 49.17969,-105.20687 49.17969,-158.89127 0,-112.18313 -96.68908,-215.573276 -214.75282,-215.573276 z"
     id="path5-3"
     inkscape:label="auesserer-Rand-weiss" /><ellipse
     style="display:inline;mix-blend-mode:soft-light;fill:none;stroke:#ffffff;stroke-width:20;stroke-dasharray:none;stroke-opacity:0.404258"
     id="path6"
     cx="250.967"
     cy="265.62955"
     rx="111.13309"
     ry="111.13308"
     inkscape:label="innerer-Rand-weiss" /></g></svg>
